{"title":"8 Mile (2002) DVDRip XviD-DUBBY","uid":5526151,"size":738859158,"categoryP":"video","categoryS":"movies","magnet":"?xt=urn:btih:c861fd0afaaca0cea80bfea23f4877cd235ce953&amp;dn=8+Mile+%282002%29+DVDRip+XviD-DUBBY&amp;tr=udp%3A%2F%2Ftracker.openbittorrent.com%3A80&amp;tr=udp%3A%2F%2Fopen.demonii.com%3A1337&amp;tr=udp%3A%2F%2Ftracker.coppersurfer.tk%3A6969&amp;tr=udp%3A%2F%2Fexodus.desync.com%3A6969","seeders":1,"leechers":0,"uploader":"Emery2010","files":2,"time":1272779221,"description":"\n\n8 Mile (2002) DVDRip XviD-DUBBY\n &lt;a href=&quot;\nhttp://www.imdb.com/title/tt0298203/&quot; rel=&quot;nofollow&quot; target=&quot;_NEW&quot;&gt;\nhttp://www.imdb.com/title/tt0298203/&lt;/a&gt;\n\nGenre: Drama | Music\n \nPlot: A young rapper, struggling with every aspect of his life,\nwants to make the most of what could be his final opportunity but\nhis problems around gives him doubts...\n\n\nVideo\nID                               : 0\nFormat                           : MPEG-4 Visual\nFormat profile                   : Advanced Simple@L5\nFormat settings, BVOP            : Yes\nFormat settings, QPel            : No\nFormat settings, GMC             : No warppoints\nFormat settings, Matrix          : Default (H.263)\nMuxing mode                      : Packed bitstream\nCodec ID                         : XVID\nCodec ID/Hint                    : XviD\nDuration                         : 1h 50mn\nBit rate                         : 755 Kbps\nWidth                            : 640 pixels\nHeight                           : 272 pixels\nDisplay aspect ratio             : 2.35:1\nFrame rate                       : 23.976 fps\nResolution                       : 8 bits\nColorimetry                      : 4:2:0\nScan type                        : Progressive\nBits/(Pixel*Frame)               : 0.181\nStream size                      : 596 MiB (85%)\nWriting library                  : XviD 1.2.1 (UTC 2008-12-04)\n\nAudio\nID                               : 1\nFormat                           : MPEG Audio\nFormat version                   : Version 1\nFormat profile                   : Layer 3\nMode                             : Joint stereo\nFormat_Settings_ModeExtension    : MS Stereo\nCodec ID                         : 55\nCodec ID/Hint                    : MP3\nDuration                         : 1h 50mn\nBit rate mode                    : Constant\nBit rate                         : 128 Kbps\nChannel(s)                       : 2 channels\nSampling rate                    : 48.0 KHz\nStream size                      : 101 MiB (14%)\nAlignment                        : Aligned on interleaves\nInterleave, duration             : 42 ms (1.00 video frame)\nInterleave, preload duration     : 504 ms\n\n","torrent":{"xt":"urn:btih:c861fd0afaaca0cea80bfea23f4877cd235ce953","amp;dn":"8+Mile+%282002%29+DVDRip+XviD-DUBBY","amp;tr":["udp%3A%2F%2Ftracker.openbittorrent.com%3A80","udp%3A%2F%2Fopen.demonii.com%3A1337","udp%3A%2F%2Ftracker.coppersurfer.tk%3A6969","udp%3A%2F%2Fexodus.desync.com%3A6969"],"infoHash":"c861fd0afaaca0cea80bfea23f4877cd235ce953","infoHashBuffer":{"type":"Buffer","data":[200,97,253,10,250,172,160,206,168,11,254,162,63,72,119,205,35,92,233,83]},"announce":[],"urlList":[]}}